# xmcd
#
# Track frame offsets:
#	150
#	67664
#	85649
#	100799
#	113309
#	129281
#	140245
#	156517
#	191653
#	207994
#	224983
#	249022
#	266576
#	277839
#	292794
#	307436
#	341805
#
# Disc length: 4749 seconds
#
# Revision: 1
# Processed by: cddbd v1.5.2PL0 Copyright (c) Steve Scherf et al.
# Submitted via: audiograbber 1.83.01
#
DISCID=fd128b11
DTITLE=Jimi Hendrix - GOLD
DYEAR=1993
DGENRE=Blues
TTITLE0=Voodoo Chile
TTITLE1=All Alone The Watchtower
TTITLE2=Foxy Lady
TTITLE3=Fire
TTITLE4=Hey Joe
TTITLE5=Crosstown Traffic
TTITLE6=Burning Of The Midnight Lamp
TTITLE7=Catfish Blues
TTITLE8=Stone Fire
TTITLE9=Gypsy Eyes
TTITLE10=Get That Feeling
TTITLE11=Red House
TTITLE12=Little Wing
TTITLE13=Day Tripper
TTITLE14=Simon Says
TTITLE15=Born Under A Bad Sing
TTITLE16=Gotta Have A New Dress
EXTD=
EXTT0=
EXTT1=
EXTT2=
EXTT3=
EXTT4=
EXTT5=
EXTT6=
EXTT7=
EXTT8=
EXTT9=
EXTT10=
EXTT11=
EXTT12=
EXTT13=
EXTT14=
EXTT15=
EXTT16=
PLAYORDER=
